<svg width="54" height="59" viewBox="0 0 54 59" fill="none" xmlns="http://www.w3.org/2000/svg">
<path d="M38.5092 16.1884H11.7404V49.6494H38.5092V16.1884ZM48.5475 47.9763H43.5284L36.8362 52.9955C36.8362 55.7727 45.7701 58.0147 48.5475 58.0147C49.0826 58.0147 49.6185 57.9142 50.0866 57.747H50.1201C52.1281 57.1111 53.5667 55.2374 53.5667 52.9955C53.5667 50.2182 51.325 47.9763 48.5475 47.9763ZM36.8362 0.907837H6.72126C3.04066 0.907837 0.0290527 3.91922 0.0290527 7.60004V9.27309C0.0290527 10.1971 0.778134 10.9461 1.7021 10.9461H6.72126L33.4901 14.2922L36.8362 0.907837Z" fill="url(#paint0_linear)"/>
<path d="M43.5286 52.9955V7.60004C43.5286 3.91922 40.517 0.907837 36.8364 0.907837C33.1558 0.907837 30.1442 3.91922 30.1442 7.60004V9.27309C30.1442 10.2099 29.4081 10.9461 28.4711 10.9461H6.72144V51.3225C6.72144 55.0031 9.73304 58.0147 13.4136 58.0147H48.5477C45.7702 58.0147 43.5286 55.7727 43.5286 52.9955ZM18.4328 17.8614H31.8172C32.7542 17.8614 33.4903 18.5975 33.4903 19.5345C33.4903 20.4713 32.7542 21.2075 31.8172 21.2075H18.4328C17.4958 21.2075 16.7597 20.4713 16.7597 19.5345C16.7597 18.5975 17.4958 17.8614 18.4328 17.8614ZM21.7789 47.9763H15.0867C14.1497 47.9763 13.4136 47.2401 13.4136 46.3033C13.4136 45.3663 14.1497 44.6302 15.0867 44.6302H21.7789C22.7159 44.6302 23.4519 45.3663 23.4519 46.3033C23.4519 47.2401 22.7159 47.9763 21.7789 47.9763ZM21.7789 41.2841H15.0867C14.1497 41.2841 13.4136 40.5479 13.4136 39.6111C13.4136 38.6741 14.1497 37.938 15.0867 37.938H21.7789C22.7159 37.938 23.4519 38.6741 23.4519 39.6111C23.4519 40.5479 22.7159 41.2841 21.7789 41.2841ZM21.7789 34.5919H15.0867C14.1497 34.5919 13.4136 33.8557 13.4136 32.9189C13.4136 31.9819 14.1497 31.2458 15.0867 31.2458H21.7789C22.7159 31.2458 23.4519 31.9819 23.4519 32.9189C23.4519 33.8557 22.7159 34.5919 21.7789 34.5919ZM35.1633 47.9763H28.4711C27.5341 47.9763 26.7981 47.2401 26.7981 46.3033C26.7981 45.3663 27.5341 44.6302 28.4711 44.6302H35.1633C36.1003 44.6302 36.8364 45.3663 36.8364 46.3033C36.8364 47.2401 36.1003 47.9763 35.1633 47.9763ZM35.1633 41.2841H28.4711C27.5341 41.2841 26.7981 40.5479 26.7981 39.6111C26.7981 38.6741 27.5341 37.938 28.4711 37.938H35.1633C36.1003 37.938 36.8364 38.6741 36.8364 39.6111C36.8364 40.5479 36.1003 41.2841 35.1633 41.2841ZM35.1633 34.5919H28.4711C27.5341 34.5919 26.7981 33.8557 26.7981 32.9189C26.7981 31.9819 27.5341 31.2458 28.4711 31.2458H35.1633C36.1003 31.2458 36.8364 31.9819 36.8364 32.9189C36.8364 33.8557 36.1003 34.5919 35.1633 34.5919ZM35.1633 27.8997H15.0867C14.1497 27.8997 13.4136 27.1635 13.4136 26.2267C13.4136 25.2897 14.1497 24.5536 15.0867 24.5536H35.1633C36.1003 24.5536 36.8364 25.2897 36.8364 26.2267C36.8364 27.1635 36.1003 27.8997 35.1633 27.8997Z" fill="url(#paint1_linear)"/>
<defs>
<linearGradient id="paint0_linear" x1="26.7979" y1="58.0147" x2="26.7979" y2="0.907837" gradientUnits="userSpaceOnUse">
<stop stop-color="#ADDCFF"/>
<stop offset="0.5028" stop-color="#EAF6FF"/>
<stop offset="1" stop-color="#EAF6FF"/>
</linearGradient>
<linearGradient id="paint1_linear" x1="27.6346" y1="58.0147" x2="27.6346" y2="0.907837" gradientUnits="userSpaceOnUse">
<stop stop-color="#5558FF"/>
<stop offset="1" stop-color="#00C0FF"/>
</linearGradient>
</defs>
</svg>
